<svg width="755" height="242" viewBox="0 0 755 242" fill="none" xmlns="http://www.w3.org/2000/svg">
<path d="M11.0085 194V48.5455H71.0938C81.9839 48.5455 91.3826 50.6761 99.2898 54.9375C107.244 59.1515 113.376 65.0464 117.685 72.6222C121.993 80.1506 124.148 88.91 124.148 98.9006C124.148 108.938 121.946 117.722 117.543 125.25C113.187 132.731 106.96 138.531 98.8636 142.651C90.767 146.77 81.1553 148.83 70.0284 148.83H32.9545V121.131H63.4943C68.7974 121.131 73.2244 120.207 76.7756 118.361C80.3741 116.514 83.0966 113.934 84.9432 110.619C86.7898 107.258 87.7131 103.351 87.7131 98.9006C87.7131 94.4025 86.7898 90.5199 84.9432 87.2528C83.0966 83.9384 80.3741 81.3816 76.7756 79.5824C73.1771 77.7831 68.75 76.8835 63.4943 76.8835H46.1648V194H11.0085Z" fill="white"/>
<path d="M142.009 194V48.5455H177.165V165.449H237.676V194H142.009Z" fill="white"/>
<path d="M569.401 48.5455V194H539.571L481.688 110.051H480.764V194H445.608V48.5455H475.864L533.108 132.352H534.316V48.5455H569.401Z" fill="white"/>
<path d="M11.0085 194V48.5455H71.0938C81.9839 48.5455 91.3826 50.6761 99.2898 54.9375C107.244 59.1515 113.376 65.0464 117.685 72.6222C121.993 80.1506 124.148 88.91 124.148 98.9006C124.148 108.938 121.946 117.722 117.543 125.25C113.187 132.731 106.96 138.531 98.8636 142.651C90.767 146.77 81.1553 148.83 70.0284 148.83H32.9545V121.131H63.4943C68.7974 121.131 73.2244 120.207 76.7756 118.361C80.3741 116.514 83.0966 113.934 84.9432 110.619C86.7898 107.258 87.7131 103.351 87.7131 98.9006C87.7131 94.4025 86.7898 90.5199 84.9432 87.2528C83.0966 83.9384 80.3741 81.3816 76.7756 79.5824C73.1771 77.7831 68.75 76.8835 63.4943 76.8835H46.1648V194H11.0085Z" fill="white"/>
<path d="M142.009 194V48.5455H177.165V165.449H237.676V194H142.009Z" fill="white"/>
<path d="M569.401 48.5455V194H539.571L481.688 110.051H480.764V194H445.608V48.5455H475.864L533.108 132.352H534.316V48.5455H569.401Z" fill="white"/>
<path fill-rule="evenodd" clip-rule="evenodd" d="M671.915 47.5967L694.531 87.7613L633.902 192.307L635.784 193.399H589.816L671.915 47.5967ZM678.891 138.65L701.365 99.8976L754.014 193.399H712.103L678.891 138.65ZM672.031 150.479L647.14 193.399H698.068L672.031 150.479Z" fill="white"/>
<path fill-rule="evenodd" clip-rule="evenodd" d="M339.8 47.5967L362.379 87.6965L301.079 193.399H257.701L339.8 47.5967ZM347.251 137.703L369.213 99.8328L421.899 193.399H381.038L347.251 137.703ZM340.391 149.532L314.951 193.399H367.003L340.391 149.532Z" fill="white"/>
</svg>
